<?xml version="1.0" encoding="utf-8"?>
<!-- Generator: Adobe Illustrator 27.2.0, SVG Export Plug-In . SVG Version: 6.00 Build 0)  -->
<svg version="1.1" id="Layer_1" xmlns="http://www.w3.org/2000/svg" xmlns:xlink="http://www.w3.org/1999/xlink" x="0px" y="0px"
	 viewBox="0 0 501.74 78.18" style="enable-background:new 0 0 501.74 78.18;" xml:space="preserve">
<g>
	<g>
		<path d="M97.56,23.9h23.13v6.07h-16.44v6.47h14.49v6.07h-14.49v11.76h-6.68V23.9z"/>
		<path d="M133.22,41.26V23.9h6.68v17.18c0,4.95,2.47,7.51,6.55,7.51c4.08,0,6.55-2.47,6.55-7.29V23.9h6.68v17.14
			c0,9.2-5.16,13.71-13.32,13.71C138.21,54.75,133.22,50.2,133.22,41.26z"/>
		<path d="M181.38,30.07h-9.24V23.9h25.17v6.16h-9.24v24.21h-6.68V30.07z"/>
		<path d="M209.91,41.26V23.9h6.68v17.18c0,4.95,2.47,7.51,6.55,7.51c4.08,0,6.55-2.47,6.55-7.29V23.9h6.68v17.14
			c0,9.2-5.16,13.71-13.32,13.71S209.91,50.2,209.91,41.26z"/>
		<path d="M250.33,23.9h13.88c3.86,0,6.86,1.08,8.85,3.08c1.69,1.69,2.6,4.08,2.6,6.94v0.09c0,4.9-2.65,7.98-6.51,9.42l7.42,10.85
			h-7.81l-6.51-9.72h-5.25v9.72h-6.68V23.9z M263.78,38.66c3.25,0,5.12-1.74,5.12-4.29v-0.09c0-2.86-2-4.34-5.25-4.34h-6.64v8.72
			H263.78z"/>
		<path d="M290.37,23.9h22.91v5.94h-16.27v6.16h14.32v5.94h-14.32v6.38h16.49v5.94h-23.13V23.9z"/>
		<path d="M348.47,39.18v-0.09c0-8.63,6.51-15.71,15.84-15.71c5.73,0,9.16,1.91,11.98,4.69l-4.25,4.9
			c-2.34-2.13-4.73-3.43-7.77-3.43c-5.12,0-8.81,4.25-8.81,9.46v0.09c0,5.21,3.6,9.55,8.81,9.55c3.47,0,5.6-1.39,7.98-3.56l4.25,4.3
			c-3.12,3.34-6.59,5.42-12.45,5.42C355.11,54.8,348.47,47.9,348.47,39.18z"/>
		<path d="M385.91,39.18v-0.09c0-8.63,6.81-15.71,16.18-15.71c9.37,0,16.1,6.99,16.1,15.62v0.09c0,8.63-6.81,15.71-16.18,15.71
			C392.63,54.8,385.91,47.81,385.91,39.18z M411.2,39.18v-0.09c0-5.21-3.82-9.55-9.2-9.55c-5.38,0-9.11,4.25-9.11,9.46v0.09
			c0,5.21,3.82,9.55,9.2,9.55C407.47,48.64,411.2,44.38,411.2,39.18z"/>
		<path d="M431.37,23.9h7.2l7.98,12.84l7.98-12.84h7.2v30.37h-6.64V34.45l-8.55,12.97h-0.17l-8.46-12.84v19.7h-6.55V23.9z"/>
		<path d="M477.71,23.9h12.41c7.25,0,11.63,4.3,11.63,10.5v0.09c0,7.03-5.47,10.67-12.28,10.67h-5.08v9.11h-6.68V23.9z
			 M489.68,39.22c3.34,0,5.29-2,5.29-4.6v-0.09c0-2.99-2.08-4.6-5.42-4.6h-5.16v9.29H489.68z"/>
	</g>
	<g>
		<g>
			<path d="M62.06,0c-0.45,4.4-2.98,12.78-2.98,12.78c2.92,4.3,4.63,9.49,4.63,15.09l0,0.22c0,0.04,0,0.07,0,0.11
				c-0.03,2.18-0.7,4.21-1.83,5.9c-2.01,3.01-5.47,4.98-9.33,4.98H37.21l-0.03,0.01c-0.05,0.03-0.1,0.06-0.15,0.09
				c-0.1,0.06-0.2,0.12-0.3,0.18c-3.98,2.42-7.56,5.35-10.67,8.67l18.39,0c4.79,0,9.19-1.66,12.74-4.37
				c0.53-0.4,1.19,0.28,0.78,0.81c-4.87,6.19-12.39,10.17-20.85,10.2l-16.33,0c-0.08,0.11-0.15,0.23-0.23,0.35
				c-2.13,3.25-3.9,6.73-5.25,10.38l21.7,0c20.64,0,37.38-16.81,37.38-37.53C74.4,16.81,69.63,6.87,62.06,0z"/>
		</g>
		<g>
			<path d="M12.34,78.18c0.45-4.4,2.98-12.78,2.98-12.78c-2.92-4.3-4.63-9.49-4.63-15.09l0-0.22c0-0.04,0-0.07,0-0.11
				c0.03-2.18,0.7-4.21,1.83-5.9c2.01-3.01,5.47-4.98,9.33-4.98h15.33l0.03-0.01c0.05-0.03,0.1-0.06,0.15-0.09
				c0.1-0.06,0.2-0.12,0.3-0.18c3.98-2.42,7.56-5.35,10.67-8.67l-18.39,0c-4.79,0-9.19,1.66-12.74,4.37
				c-0.53,0.4-1.19-0.28-0.78-0.81c4.87-6.19,12.39-10.17,20.85-10.2l16.33,0c0.08-0.11,0.15-0.23,0.23-0.35
				c2.13-3.25,3.9-6.73,5.25-10.38l-21.7,0C16.73,12.78,0,29.58,0,50.31C0,61.37,4.76,71.31,12.34,78.18z"/>
		</g>
	</g>
</g>
</svg>
